# AST/ASF file generated using VICON BodyLanguage
# -----------------------------------------------
:version 1.10
:name VICON
:units
  mass 1.0
  length 0.45
  angle deg
:documentation
   .ast/.asf automatically generated from VICON data using
   VICON BodyBuilder and BodyLanguage model FoxedUp or BRILLIANT.MOD
:root
   order TX TY TZ RX RY RZ
   axis XYZ
   position 0 0 0  
   orientation 0 0 0 
:bonedata
  begin
     id 1 
     name lhipjoint
     direction 0.561001 -0.76473 0.316963 
     length 2.4722 
     axis 0 0 0  XYZ
  end
  begin
     id 2 
     name lfemur
     direction 0.34202 -0.939693 0  
     length 7.59403  
     axis 0 0 20  XYZ
    dof rx ry rz
    limits (-160.0 20.0)
           (-70.0 70.0)
           (-60.0 70.0)
  end
  begin
     id 3 
     name ltibia
     direction 0.34202 -0.939693 0   
     length 7.89655   
     axis 0 0 20   XYZ
    dof rx
    limits (-10.0 170.0)
  end
  begin
     id 4 
     name lfoot
     direction 0.061296 -0.168409 0.98381   
     length 2.73287   
     axis -90 7.62852e-016 20   XYZ
    dof rx rz
    limits (-45.0 90.0)
           (-70.0 20.0)
  end
  begin
     id 5 
     name ltoes
     direction 1.53547e-011 -4.21984e-011 1   
     length 1.37057   
     axis -90 7.62852e-016 20   XYZ
    dof rx
    limits (-90.0 20.0)
  end
  begin
     id 6 
     name rhipjoint
     direction -0.559611 -0.765599 0.317323   
     length 2.46939  
     axis 0 0 0  XYZ 
  end
  begin
     id 7 
     name rfemur
     direction -0.34202 -0.939693 0   
     length 7.53712   
     axis 0 0 -20   XYZ
    dof rx ry rz
    limits (-160.0 20.0)
           (-70.0 70.0)
           (-70.0 60.0)
  end
  begin
     id 8 
     name rtibia
     direction -0.34202 -0.939693 0   
     length 8.12549   
     axis 0 0 -20   XYZ
    dof rx
    limits (-10.0 170.0)
 end
 begin
     id 9 
     name rfoot
     direction -0.066984 -0.184037 0.980634   
     length 2.67541  
     axis -90 -7.62852e-016 -20   XYZ
    dof rx rz
    limits (-45.0 90.0)
           (-20.0 70.0)
  end
  begin
     id 10 
     name rtoes
     direction -1.53549e-011 -4.21786e-011 1   
     length 1.34085   
     axis -90 -7.62852e-016 -20   XYZ
    dof rx
    limits (-90.0 20.0)
  end
  begin
     id 11 
     name lowerback
     direction -0.0522728 0.992594 -0.109658   
     length 2.05633   
     axis 0 0 0   XYZ
    dof rx ry rz
    limits (-20.0 45.0)
           (-30.0 30.0)
           (-30.0 30.0)
  end
  begin
     id 12 
     name upperback
     direction 0.00589338 0.999977 0.00335704   
     length 2.05845   
     axis 0 0 0   XYZ
    dof rx ry rz
    limits (-20.0 45.0)
           (-30.0 30.0)
           (-30.0 30.0)
  end
  begin
     id 13 
     name thorax
     direction 0.0292928 0.998059 0.0549487   
     length 2.09281   
     axis 0 0 0   XYZ
    dof rx ry rz
    limits (-20.0 45.0)
           (-30.0 30.0)
           (-30.0 30.0)
  end
  begin
     id 14 
     name lowerneck
     direction 0.0356368 0.980775 0.191858   
     length 1.84767   
     axis 0 0 0   XYZ
    dof rx ry rz
    limits (-20.0 45.0)
           (-30.0 30.0)
           (-30.0 30.0)
  end
  begin
     id 15 
     name upperneck
     direction -0.0227605 0.98931 -0.14404   
     length 1.89582   
     axis 0 0 0   XYZ
    dof rx ry rz
    limits (-20.0 45.0)
           (-30.0 30.0)
           (-30.0 30.0)
  end
  begin
     id 16
     name head
     direction -0.00932985 0.997511 -0.0698904  
     length 1.90213  
     axis 0 0 0   XYZ
    dof rx ry rz
    limits (-20.0 45.0)
           (-30.0 30.0)
           (-30.0 30.0)
  end
  begin
     id 17 
     name lclavicle
     direction 0.873442 0.479511 0.0846686  
     length 3.41193  
     axis 0 0 0   XYZ
    dof ry rz
    limits (-20.0 10.0)
           (0.0 20.0)
  end
  begin
     id 18 
     name lhumerus
     direction 1 -4.4897e-011 -5.62117e-018   
     length 5.59864   
     axis 180 -30 -90   XYZ
    dof rx ry rz
    limits (-60.0 90.0)
           (-90.0 90.0)
           (-90.0 90.0)
  end
  begin
     id 19
     name lradius
     direction 1 -4.48966e-011 -6.26295e-027   
     length 3.59542   
     axis 180 -30 -90   XYZ
    dof rx
    limits (-10.0 170.0)
  end
  begin
     id 20
     name lwrist
     direction 1 -4.48947e-011 -1.74096e-026   
     length 1.79771   
     axis 1.04567e-014 90 90   XYZ
    dof ry
    limits (-180.0 0.0)
 end
  begin
     id 21 
     name lhand
     direction 1 -4.49085e-011 -3.48469e-026   
     length 0.572014   
     axis 2.22196e-014 90 90   XYZ
    dof rx rz
    limits (-90.0 90.0)
           (-45.0 45.0)
  end
  begin
     id 22 
     name lfingers
     direction 1 -4.48884e-011 -6.96135e-026   
     length 0.461173   
     axis 4.44383e-014 90 90   XYZ
    dof rx
    limits (0.0 90.0)
  end
  begin
     id 23
     name lthumb
     direction 0.707107 -6.34976e-011 0.707107   
     length 0.662154   
     axis -90 45 -5.4397e-014   XYZ
    dof rx rz
    limits (-45.0 45.0)
           (-45.0 45.0)
  end
  begin
     id 24 
     name rclavicle
     direction -0.890242 0.443271 0.104786   
     length 3.46753  
     axis 0 0 0   XYZ 
    dof ry rz
    limits (-10.0 20.0)
           (-20.0 0.0)
  end
  begin
     id 25 
     name rhumerus
     direction -1 -4.48963e-011 -5.41723e-018  
     length 5.8094   
     axis 180 30 90   XYZ
    dof rx ry rz
    limits (-90.0 60.0)
           (-90.0 90.0)
           (-90.0 90.0)
  end
  begin
     id 26 
     name rradius
     direction -1 -4.48958e-011 -6.51059e-027   
     length 3.66953   
     axis 180 30 90   XYZ
    dof rx
    limits (-10.0 170.0)
  end
  begin
     id 27 
     name rwrist
     direction -1 -4.48975e-011 -1.74124e-026   
     length 1.83476   
     axis 1.04567e-014 -90 -90   XYZ
    dof ry
    limits (-180.0 0.0)
  end
  begin
     id 28
     name rhand
     direction -1 -4.49013e-011 -3.48326e-026   
     length 0.57843   
     axis 2.22196e-014 -90 -90   XYZ
    dof rx rz
    limits (-90.0 90.0)
           (-45.0 45.0)
  end
  begin
     id 29
     name rfingers
     direction -1 -4.49023e-011 -6.9669e-026   
     length 0.466345   
     axis 4.44383e-014 -90 -90   XYZ
    dof rx
    limits (0.0 90.0)
  end
  begin
     id 30
     name rthumb
     direction -0.707107 -6.34926e-011 0.707107   
     length 0.669581   
     axis -90 -45 5.4397e-014   XYZ
    dof rx rz
    limits (-45.0 45.0)
           (-45.0 45.0)
  end
:hierarchy
  begin
    root lhipjoint rhipjoint lowerback
    lhipjoint lfemur
    lfemur ltibia
    ltibia lfoot
    lfoot ltoes
    rhipjoint rfemur
    rfemur rtibia
    rtibia rfoot
    rfoot rtoes
    lowerback upperback
    upperback thorax
    thorax lowerneck lclavicle rclavicle
    lowerneck upperneck
    upperneck head
    lclavicle lhumerus
    lhumerus lradius
    lradius lwrist
    lwrist lhand lthumb
    lhand lfingers
    rclavicle rhumerus
    rhumerus rradius
    rradius rwrist
    rwrist rhand rthumb
    rhand rfingers
  end

#!OML:ASF H:\SkateBoarding\Project 1\Capture day 1\Session 1\Skater.ASF
:FULLY-SPECIFIED
:DEGREES
261
root 5.72137 19.2826 15.1822 -4.07782 71.4264 -18.5509
lowerback 14.2949 -4.21412 -10.0501
upperback 0.172273 -7.33474 -2.67923
thorax -6.92209 -3.21874 4.15357
lowerneck -16.5558 -7.10733 -1.12211
upperneck 38.5696 -13.6515 9.70151
head 18.1307 -4.11897 1.99437
rclavicle 7.79236e-014 2.54444e-014
rhumerus -67.0174 0.76195 -91.7239
rradius 77.4595
rwrist -6.20303
rhand -47.5294 7.20109
rfingers 7.12502
rthumb -20.2162 -21.7669
lclavicle 7.79236e-014 2.54444e-014
lhumerus -8.18852 2.3715 79.6259
lradius 22.8467
lwrist 7.95931
lhand -28.4932 11.7771
lfingers 7.12502
lthumb -1.86226 41.7487
rfemur -41.7056 -6.30336 31.1899
rtibia 54.1887
rfoot -35.6633 7.00669
rtoes -3.17922
lfemur -23.8022 -1.71965 -5.028
ltibia 48.0034
lfoot -46.1589 -3.60082
ltoes -11.5446
262
root 5.74201 19.3096 15.6192 -4.91681 72.0377 -19.0689
lowerback 14.3524 -4.17058 -10.0788
upperback 0.196232 -7.28529 -2.66855
thorax -6.92988 -3.19327 4.17667
lowerneck -16.5086 -7.1953 -1.12271
upperneck 38.7777 -13.7273 9.53907
head 18.2245 -4.15656 1.91459
rclavicle 9.30312e-014 6.36111e-015
rhumerus -66.516 -0.268664 -92.0267
rradius 75.3568
rwrist -6.27094
rhand -46.915 6.898
rfingers 7.12502
rthumb -19.6256 -22.1314
lclavicle 9.30312e-014 6.36111e-015
lhumerus -9.29004 3.61678 79.4704
lradius 22.9321
lwrist 8.94922
lhand -28.0139 13.3105
lfingers 7.12502
lthumb -1.39929 43.2857
rfemur -41.1228 -5.65559 30.3594
rtibia 53.9641
rfoot -34.6423 7.67278
rtoes -2.54764
lfemur -23.3543 -1.8708 -5.03775
ltibia 47.2377
lfoot -45.8707 -3.72121
ltoes -11.7091
263
root 5.7637 19.3334 16.0525 -5.77157 72.5965 -19.5518
lowerback 14.4533 -4.11836 -10.0858
upperback 0.222026 -7.22615 -2.65157
thorax -6.96319 -3.16225 4.19724
lowerneck -16.4659 -7.26334 -1.12403
upperneck 38.9872 -13.7547 9.33591
head 18.3097 -4.18027 1.82558
rclavicle 5.96354e-014 1.90833e-014
rhumerus -65.9333 -1.15199 -92.2981
rradius 73.2604
rwrist -6.62858
rhand -46.1376 6.34703
rfingers 7.12502
rthumb -18.878 -22.7569
lclavicle 5.96354e-014 1.90833e-014
lhumerus -10.4455 4.63853 79.2663
lradius 23.1499
lwrist 10.1491
lhand -27.622 14.6659
lfingers 7.12502
lthumb -1.02088 44.6432
rfemur -40.4704 -4.89767 29.4646
rtibia 53.7554
rfoot -33.5437 8.34679
rtoes -2.03899
lfemur -22.8382 -2.06513 -5.07539
ltibia 46.499
lfoot -45.6679 -3.80256
ltoes -11.8902
264
root 5.78636 19.3543 16.482 -6.65847 73.1046 -20.0443
lowerback 14.5608 -4.06012 -10.0458
upperback 0.249083 -7.15212 -2.62698
thorax -7.00532 -3.12532 4.1986
lowerneck -16.4235 -7.31588 -1.12438
upperneck 39.1891 -13.7442 9.10303
head 18.3827 -4.19323 1.72976
rclavicle 3.18055e-014 6.04305e-014
rhumerus -65.2751 -1.91773 -92.5222
rradius 71.1928
rwrist -7.34303
rhand -45.1497 5.39419
rfingers 7.12502
rthumb -17.9277 -23.7995
lclavicle 3.18055e-014 6.04305e-014
lhumerus -11.6341 5.44017 79.0335
lradius 23.4713
lwrist 11.5218
lhand -27.3215 15.8302
lfingers 7.12502
lthumb -0.730613 45.8087
rfemur -39.8071 -4.03958 28.5432
rtibia 53.6255
rfoot -32.4064 9.06847
rtoes -1.63019
lfemur -22.3359 -2.31861 -5.11959
ltibia 45.9028
lfoot -45.5886 -3.85928
ltoes -12.0911
265
root 5.80979 19.3718 16.9081 -7.53884 73.5733 -20.5249
lowerback 14.655 -3.99785 -9.97399
upperback 0.273843 -7.06571 -2.59075
thorax -7.0464 -3.08373 4.19163
lowerneck -16.3738 -7.3588 -1.13615
upperneck 39.38 -13.7013 8.84444
head 18.4415 -4.19959 1.6301
rclavicle -1.43125e-014 -1.59028e-014
rhumerus -64.5557 -2.59431 -92.6702
rradius 69.1846
rwrist -8.53482
rhand -43.9097 3.98354
rfingers 7.12502
rthumb -16.7342 -25.3152
lclavicle -1.43125e-014 -1.59028e-014
lhumerus -12.8372 6.04415 78.7953
lradius 23.862
lwrist 12.9931
lhand -27.1038 16.8042
lfingers 7.12502
lthumb -0.520371 46.7833
rfemur -39.1305 -3.11955 27.6182
rtibia 53.4914
rfoot -31.2392 9.80713
rtoes -1.27139
lfemur -21.8402 -2.63222 -5.17708
ltibia 45.3699
lfoot -45.5953 -3.83117
ltoes -12.3484
266
root 5.83126 19.3578 17.3278 -8.40486 74.0128 -20.9987
lowerback 14.7238 -3.93454 -9.87894
upperback 0.294015 -6.97056 -2.53636
thorax -7.07961 -3.0393 4.18749
lowerneck -16.3148 -7.39445 -1.16059
upperneck 39.5583 -13.6279 8.55795
head 18.4848 -4.20094 1.52538
rclavicle -5.56597e-015 6.36111e-015
rhumerus -63.7971 -3.20347 -92.7048
rradius 67.2767
rwrist -10.3696
rhand -42.3666 2.24125
rfingers 7.12502
rthumb -15.2483 -27.1768
lclavicle -5.56597e-015 6.36111e-015
lhumerus -14.0451 6.48969 78.5719
lradius 24.2937
lwrist 14.4618
lhand -26.9547 17.5932
lfingers 7.12502
lthumb -0.376314 47.5726
rfemur -38.572 -2.17327 26.7048
rtibia 53.4451
rfoot -30.0742 10.5267
rtoes -0.967732
lfemur -21.4448 -2.99764 -5.23782
ltibia 44.9938
lfoot -45.6777 -3.75878
ltoes -12.6317
267
root 5.85642 19.3701 17.7488 -9.24722 74.4328 -21.4662
lowerback 14.7578 -3.87404 -9.77796
upperback 0.308507 -6.87307 -2.45665
thorax -7.09711 -2.99489 4.20343
lowerneck -16.2479 -7.4229 -1.20735
upperneck 39.7246 -13.5228 8.24735
head 18.5149 -4.19767 1.41934
rclavicle -1.00983e-013 5.40694e-014
rhumerus -63.0137 -3.76722 -92.595
rradius 65.4889
rwrist -12.8969
rhand -40.5862 0.266198
rfingers 7.12502
rthumb -13.5328 -29.2741
lclavicle -1.00983e-013 5.40694e-014
lhumerus -15.2528 6.80216 78.3751
lradius 24.7482
lwrist 15.8461
lhand -26.8629 18.2087
lfingers 7.12502
lthumb -0.287672 48.1883
rfemur -37.9132 -1.2301 25.8396
rtibia 53.2739
rfoot -28.9852 11.2203
rtoes -0.722007
lfemur -21.024 -3.40607 -5.31596
ltibia 44.6123
lfoot -45.8122 -3.62263
ltoes -12.9412
268
root 5.88276 19.3787 18.168 -10.0893 74.8406 -21.9565
lowerback 14.7487 -3.81806 -9.67472
upperback 0.319181 -6.7749 -2.34974
thorax -7.09151 -2.95164 4.24298
lowerneck -16.1754 -7.44853 -1.27348
upperneck 39.8769 -13.3954 7.91608
head 18.5327 -4.19274 1.31096
rclavicle 6.83819e-014 1.59028e-014
rhumerus -62.2178 -4.31657 -92.3122
rradius 63.8309
rwrist -16.0894
rhand -38.6597 -1.83259
rfingers 7.12502
rthumb -11.6755 -31.4873
lclavicle 6.83819e-014 1.59028e-014
lhumerus -16.4549 6.99965 78.2119
lradius 25.2117
lwrist 17.0726
lhand -26.8307 18.6782
lfingers 7.12502
lthumb -0.256614 48.6578
rfemur -37.2758 -0.334806 25.0421
rtibia 53.0783
rfoot -28.0043 11.8837
rtoes -0.497019
lfemur -20.6657 -3.82288 -5.39569
ltibia 44.3221
lfoot -45.9749 -3.47298
ltoes -13.2613
269
root 5.9101 19.3833 18.5859 -10.9779 75.2529 -22.5193
lowerback 14.7029 -3.77514 -9.57225
upperback 0.327107 -6.68826 -2.21001
thorax -7.0626 -2.91525 4.31648
lowerneck -16.101 -7.47086 -1.36899
upperneck 40.0146 -13.2464 7.57453
head 18.5414 -4.18645 1.20658
rclavicle -9.62118e-014 -6.36111e-014
rhumerus -61.4144 -4.8653 -91.8444
rradius 62.284
rwrist -19.7373
rhand -36.7321 -3.97393
rfingers 7.12502
rthumb -9.81617 -33.7251
lclavicle -9.62118e-014 -6.36111e-014
lhumerus -17.6521 7.09979 78.0858
lradius 25.6803
lwrist 18.1137
lhand -26.8625 19.0085
lfingers 7.12502
lthumb -0.287276 48.9881
rfemur -36.6315 0.467732 24.338
rtibia 52.7841
rfoot -27.1883 12.4638
rtoes -0.322761
lfemur -20.3435 -4.23476 -5.4659
ltibia 44.0356
lfoot -46.104 -3.29958
ltoes -13.5892
